<?xml version="1.0" encoding="UTF-8" standalone="no"?>
<!-- Created with Inkscape (http://www.inkscape.org/) -->

<svg
   width="370"
   height="370"
   version="1.1"
   viewBox="0 0 370 370"
   xml:space="preserve"
   id="svg205"
   sodipodi:docname="arboreal tree.svg"
   inkscape:version="1.1 (c68e22c387, 2021-05-23)"
   xmlns:inkscape="http://www.inkscape.org/namespaces/inkscape"
   xmlns:sodipodi="http://sodipodi.sourceforge.net/DTD/sodipodi-0.dtd"
   xmlns="http://www.w3.org/2000/svg"
   xmlns:svg="http://www.w3.org/2000/svg"><sodipodi:namedview
     id="namedview207"
     pagecolor="#505050"
     bordercolor="#eeeeee"
     borderopacity="1"
     inkscape:pageshadow="0"
     inkscape:pageopacity="0"
     inkscape:pagecheckerboard="0"
     showgrid="false"
     inkscape:zoom="1.4295024"
     inkscape:cx="166.84127"
     inkscape:cy="209.51346"
     inkscape:window-width="1920"
     inkscape:window-height="1017"
     inkscape:window-x="-8"
     inkscape:window-y="-8"
     inkscape:window-maximized="1"
     inkscape:current-layer="g25" /><defs
     id="defs11" /><g
     display="inline"
     stroke="#a7a7a7"
     stroke-opacity="0.6549"
     id="g107"
     inkscape:groupmode="layer"
     inkscape:label="#g107"><g
       transform="matrix(1.3333,0,0,-1.3333,0,933.33)"
       id="g103"
       style="display:inline"><g
         transform="matrix(0.3791,0,0,0.3791,4.2945,429.62)"
         id="g25"
         style="display:inline;stroke-width:2.97752;stroke-miterlimit:4;stroke-dasharray:none"><g
           clip-path="none"
           id="g17"
           style="stroke-width:2.97752;stroke-miterlimit:4;stroke-dasharray:none"><g
             transform="translate(307.77,18.29)"
             stroke="#a7a7a7"
             stroke-opacity="0.6549"
             id="g15"
             style="stroke-width:2.97752;stroke-miterlimit:4;stroke-dasharray:none"><path
               d="m 0,0 7.081,105.5 c 0.118,1.758 -1.272,3.251 -3.034,3.259 l -173.54,0.768 c -0.206,0.001 -0.405,0.022 -0.595,0.059 -2.095,0.411 -3.193,2.907 -1.887,4.758 l 89.987,127.46 c 1.419,2.01 0.002,4.786 -2.457,4.816 l -42.915,0.531 c -2.536,0.032 -3.931,2.96 -2.358,4.95 l 68.842,87.046 c 1.584,2.003 0.158,4.949 -2.395,4.949 h -28.841 c -2.474,0 -3.921,2.788 -2.498,4.812 l 62.911,89.474 c 1.423,2.024 -0.025,4.811 -2.499,4.811 h -19.279 c -2.46,0 -3.91,2.759 -2.517,4.785 l 53.034,77.14 c 1.393,2.027 -0.058,4.785 -2.518,4.785 h -15.968 c -2.346,0 -3.816,2.535 -2.652,4.571 l 52.604,85.147 c 0,0 0.79022,53.029 0.66007,46.652"
               fill="none"
               stroke="#a7a7a7"
               stroke-miterlimit="10"
               stroke-opacity="0.6549"
               stroke-width="6"
               id="path13"
               style="display:inline;stroke-width:2.97752;stroke-miterlimit:4;stroke-dasharray:none" /></g></g><g
           clip-path="none"
           id="g23"
           style="display:inline;stroke-width:2.97752;stroke-miterlimit:4;stroke-dasharray:none"><g
             transform="translate(402.62,18.29)"
             stroke="#a7a7a7"
             stroke-opacity="0.6549"
             id="g21"
             style="display:inline;stroke-width:2.97752;stroke-miterlimit:4;stroke-dasharray:none"><path
               d="m 0,0 -7.081,105.5 c -0.118,1.758 1.272,3.251 3.034,3.259 l 173.54,0.768 c 0.206,0.001 0.405,0.022 0.595,0.059 2.096,0.411 3.193,2.907 1.888,4.758 l -89.988,127.46 c -1.419,2.01 -0.002,4.786 2.457,4.816 l 42.915,0.531 c 2.536,0.032 3.931,2.96 2.358,4.95 l -68.843,87.046 c -1.583,2.003 -0.157,4.949 2.397,4.949 h 28.839 c 2.475,0 3.922,2.788 2.499,4.812 l -62.911,89.474 c -1.423,2.024 0.025,4.811 2.499,4.811 h 19.279 c 2.46,0 3.911,2.759 2.517,4.785 l -53.033,77.14 c -1.394,2.027 0.058,4.785 2.517,4.785 h 15.968 c 2.346,0 3.817,2.535 2.652,4.571 l -48.7,85.147 c 0,0 -0.25663,50.028 -0.25663,46.905"
               fill="none"
               stroke="#a7a7a7"
               stroke-miterlimit="10"
               stroke-opacity="0.6549"
               stroke-width="6"
               id="path19"
               style="display:inline;stroke-width:2.97752;stroke-miterlimit:4;stroke-dasharray:none" /></g></g></g><g
         transform="matrix(0.3791,0,0,0.3791,4.2945,429.62)"
         fill="none"
         stroke-width="5.1537"
         id="g101"
         style="display:inline"><g
           clip-path="none"
           fill="none"
           stroke="#a7a7a7"
           stroke-opacity="0.6549"
           stroke-width="5.1537"
           id="g99"
           style="display:inline"
           mask="none"><g
             transform="translate(526.87,165.77)"
             id="g29"><path
               d="m 0,0 h -341.42 c -3.635,0 -6.581,-2.946 -6.581,-6.581 0,-3.634 2.946,-6.58 6.581,-6.58 H 0 c 3.634,0 6.58,2.946 6.58,6.58 C 6.58,-2.946 3.634,0 0,0"
               fill="none"
               stroke="#a7a7a7"
               stroke-opacity="0.6549"
               stroke-width="5.1537"
               id="path27" /></g><g
             transform="translate(479.65,201.52)"
             id="g33"><path
               d="m 0,0 h -246.97 c -3.635,0 -6.581,-2.946 -6.581,-6.581 0,-3.635 2.946,-6.581 6.581,-6.581 H 0 c 3.634,0 6.58,2.946 6.58,6.581 C 6.58,-2.946 3.634,0 0,0"
               fill="none"
               stroke="#a7a7a7"
               stroke-opacity="0.6549"
               stroke-width="5.1537"
               id="path31" /></g><g
             transform="translate(449.84,237.26)"
             id="g37"><path
               d="m 0,0 h -187.36 c -3.634,0 -6.581,-2.946 -6.581,-6.58 0,-3.635 2.947,-6.581 6.581,-6.581 H 0 c 3.634,0 6.58,2.946 6.58,6.581 C 6.58,-2.946 3.634,0 0,0"
               fill="none"
               stroke="#a7a7a7"
               stroke-opacity="0.6549"
               stroke-width="5.1537"
               id="path35" /></g><g
             transform="translate(404.61,268.03)"
             id="g41"><path
               d="m 0,0 h -96.904 c -3.634,0 -6.58,-2.946 -6.58,-6.581 0,-3.634 2.946,-6.58 6.58,-6.58 H 0 c 3.634,0 6.58,2.946 6.58,6.58 C 6.58,-2.946 3.634,0 0,0"
               fill="none"
               stroke="#a7a7a7"
               stroke-opacity="0.6549"
               stroke-width="5.1537"
               id="path39" /></g><g
             transform="translate(488.16,294.81)"
             id="g45"><path
               d="m 0,0 h -264 c -3.634,0 -6.581,-2.946 -6.581,-6.581 0,-3.634 2.947,-6.58 6.581,-6.58 H 0 c 3.635,0 6.581,2.946 6.581,6.58 C 6.581,-2.946 3.635,0 0,0"
               fill="none"
               stroke="#a7a7a7"
               stroke-opacity="0.6549"
               stroke-width="5.1537"
               id="path43" /></g><g
             transform="translate(448.29,323.58)"
             id="g49"><path
               d="m 0,0 h -184.26 c -3.634,0 -6.58,-2.946 -6.58,-6.581 0,-3.635 2.946,-6.581 6.58,-6.581 H 0 c 3.635,0 6.581,2.946 6.581,6.581 C 6.581,-2.946 3.635,0 0,0"
               fill="none"
               stroke="#a7a7a7"
               stroke-opacity="0.6549"
               stroke-width="5.1537"
               id="path47" /></g><g
             transform="translate(425.74,354)"
             id="g53"><path
               d="m 0,0 h -139.16 c -3.634,0 -6.58,-2.946 -6.58,-6.581 0,-3.634 2.946,-6.58 6.58,-6.58 H 0 c 3.634,0 6.58,2.946 6.58,6.58 C 6.58,-2.946 3.634,0 0,0"
               fill="none"
               stroke="#a7a7a7"
               stroke-opacity="0.6549"
               stroke-width="5.1537"
               id="path51" /></g><g
             transform="translate(461.21,385.1)"
             id="g57"><path
               d="m 0,0 h -210.1 c -3.634,0 -6.581,-2.946 -6.581,-6.581 0,-3.634 2.947,-6.58 6.581,-6.58 H 0 c 3.634,0 6.58,2.946 6.58,6.58 C 6.58,-2.946 3.634,0 0,0"
               fill="none"
               stroke="#a7a7a7"
               stroke-opacity="0.6549"
               stroke-width="5.1537"
               id="path55" /></g><g
             transform="translate(432.91,412.26)"
             id="g61"><path
               d="m 0,0 h -153.5 c -3.634,0 -6.581,-2.946 -6.581,-6.581 0,-3.634 2.947,-6.581 6.581,-6.581 H 0 c 3.635,0 6.581,2.947 6.581,6.581 C 6.581,-2.946 3.635,0 0,0"
               fill="none"
               stroke="#a7a7a7"
               stroke-opacity="0.6549"
               stroke-width="5.1537"
               id="path59" /></g><g
             transform="translate(409.31,438.42)"
             id="g65"><path
               d="m 0,0 h -106.3 c -3.635,0 -6.581,-2.946 -6.581,-6.581 0,-3.634 2.946,-6.58 6.581,-6.58 H 0 c 3.635,0 6.581,2.946 6.581,6.58 C 6.581,-2.946 3.635,0 0,0"
               fill="none"
               stroke="#a7a7a7"
               stroke-opacity="0.6549"
               stroke-width="5.1537"
               id="path63" /></g><g
             transform="translate(390.54,462.36)"
             id="g69"><path
               d="m 0,0 h -68.768 c -3.634,0 -6.58,-2.946 -6.58,-6.581 0,-3.634 2.946,-6.581 6.58,-6.581 H 0 c 3.635,0 6.581,2.947 6.581,6.581 C 6.581,-2.946 3.635,0 0,0"
               fill="none"
               stroke="#a7a7a7"
               stroke-opacity="0.6549"
               stroke-width="5.1537"
               id="path67" /></g><g
             transform="translate(378.79,533.16)"
             id="g73"><path
               d="m 0,0 h -45.257 c -3.635,0 -6.581,-2.946 -6.581,-6.581 0,-3.634 2.946,-6.58 6.581,-6.58 H 0 c 3.634,0 6.58,2.946 6.58,6.58 C 6.58,-2.946 3.634,0 0,0"
               fill="none"
               stroke="#a7a7a7"
               stroke-opacity="0.6549"
               stroke-width="5.1537"
               id="path71" /></g><g
             transform="translate(366.95,556.1)"
             id="g77"><path
               d="m 0,0 h -21.572 c -3.635,0 -6.581,-2.946 -6.581,-6.581 0,-3.634 2.946,-6.58 6.581,-6.58 H 0 c 3.635,0 6.581,2.946 6.581,6.58 C 6.581,-2.946 3.635,0 0,0"
               fill="none"
               stroke="#a7a7a7"
               stroke-opacity="0.6549"
               stroke-width="5.1537"
               id="path75" /></g><g
             transform="translate(424.85,486.29)"
             id="g81"><path
               d="m 0,0 h -137.38 c -3.634,0 -6.58,-2.946 -6.58,-6.581 0,-3.634 2.946,-6.581 6.58,-6.581 H 0 c 3.635,0 6.581,2.947 6.581,6.581 C 6.581,-2.946 3.635,0 0,0"
               fill="none"
               stroke="#a7a7a7"
               stroke-opacity="0.6549"
               stroke-width="5.1537"
               id="path79" /></g><g
             transform="translate(402.66,510.23)"
             id="g85"><path
               d="m 0,0 h -92.99 c -3.635,0 -6.581,-2.946 -6.581,-6.581 0,-3.634 2.946,-6.58 6.581,-6.58 H 0 c 3.635,0 6.581,2.946 6.581,6.58 C 6.581,-2.946 3.635,0 0,0"
               fill="none"
               stroke="#a7a7a7"
               stroke-opacity="0.6549"
               stroke-width="5.1537"
               id="path83" /></g><g
             transform="translate(394.18,578.03)"
             id="g89"><path
               d="m 0,0 h -76.043 c -3.635,0 -6.581,-2.946 -6.581,-6.581 0,-3.634 2.946,-6.58 6.581,-6.58 H 0 c 3.635,0 6.581,2.946 6.581,6.58 C 6.581,-2.946 3.635,0 0,0"
               fill="none"
               stroke="#a7a7a7"
               stroke-opacity="0.6549"
               stroke-width="5.1537"
               id="path87" /></g><g
             transform="translate(377.56,599.97)"
             id="g93"><path
               d="m 0,0 h -42.796 c -3.635,0 -6.581,-2.946 -6.581,-6.581 0,-3.634 2.946,-6.58 6.581,-6.58 H 0 c 3.634,0 6.58,2.946 6.58,6.58 C 6.58,-2.946 3.634,0 0,0"
               fill="none"
               stroke="#a7a7a7"
               stroke-opacity="0.6549"
               stroke-width="5.1537"
               id="path91" /></g><g
             transform="translate(364.34,621.9)"
             id="g97"
             style="display:inline"><path
               d="m 0,0 h -16.365 c -3.635,0 -6.581,-2.946 -6.581,-6.581 0,-3.634 2.946,-6.581 6.581,-6.581 H 0 c 3.635,0 6.581,2.947 6.581,6.581 C 6.581,-2.946 3.635,0 0,0"
               fill="none"
               stroke="#a7a7a7"
               stroke-opacity="0.6549"
               stroke-width="5.1537"
               id="path95" /></g></g></g></g><circle
       cx="185.75"
       cy="181.92"
       fill="none"
       opacity="0.54"
       stroke-width="4"
       id="circle105"
       style="display:inline;stroke-width:1.5;stroke-miterlimit:4;stroke-dasharray:none"
       r="171.75" /></g></svg>
